HIERARCHY
ROOT Hips
{
	OFFSET 0.000000 88.474243 0.000000
	CHANNELS 6 Xposition Yposition Zposition Zrotation Yrotation Xrotation 
	JOINT Hips_Spine
	{
		OFFSET 0.000000 0.000000 0.000000
		CHANNELS 3 Zrotation Yrotation Xrotation
		JOINT Spine
		{
			OFFSET 0.005100 8.711998 -0.691000
			CHANNELS 3 Zrotation Yrotation Xrotation
			JOINT Spine1
			{
				OFFSET -0.009200 8.660301 -1.275000
				CHANNELS 3 Zrotation Yrotation Xrotation
				JOINT Spine2
				{
					OFFSET 0.006300 9.852501 -1.857000
					CHANNELS 3 Zrotation Yrotation Xrotation
					JOINT Spine2_Neck
					{
						OFFSET 0.000000 0.000000 0.000000
						CHANNELS 3 Zrotation Yrotation Xrotation
						JOINT Neck
						{
							OFFSET 0.016300 11.420799 -0.263300
							CHANNELS 3 Zrotation Yrotation Xrotation
							End Site #name: Head
							{
								OFFSET -0.019200 9.262405 2.362500
							}
						}
					}
					JOINT Spine2_LeftShoulder
					{
						OFFSET 0.000000 0.000000 0.000000
						CHANNELS 3 Zrotation Yrotation Xrotation
						JOINT LeftShoulder
						{
							OFFSET 5.616900 6.732201 -0.345700
							CHANNELS 3 Zrotation Yrotation Xrotation
							JOINT LeftArm
							{
								OFFSET 10.664888 -0.183372 -2.440700
								CHANNELS 3 Zrotation Yrotation Xrotation
								JOINT LeftForeArm
								{
									OFFSET 27.459126 0.000000 0.000000
									CHANNELS 3 Zrotation Yrotation Xrotation
									End Site #name: LeftHand
									{
										OFFSET 21.306858 0.000000 0.000000
									}
								}
							}
						}
					}
					JOINT Spine2_RightShoulder
					{
						OFFSET 0.000000 0.000000 0.000000
						CHANNELS 3 Zrotation Yrotation Xrotation
						JOINT RightShoulder
						{
							OFFSET -5.580300 6.737503 -0.344400
							CHANNELS 3 Zrotation Yrotation Xrotation
							JOINT RightArm
							{
								OFFSET -10.679335 -0.188484 -2.383900
								CHANNELS 3 Zrotation Yrotation Xrotation
								JOINT RightForeArm
								{
									OFFSET -27.503529 0.000000 0.000000
									CHANNELS 3 Zrotation Yrotation Xrotation
									End Site #name: RightHand
									{
										OFFSET -21.306808 0.000000 0.000000
									}
								}
							}
						}
					}
				}
			}
		}
	}
	JOINT Hips_LeftUpLeg
	{
		OFFSET 0.000000 0.000000 0.000000
		CHANNELS 3 Zrotation Yrotation Xrotation
		JOINT LeftUpLeg
		{
			OFFSET 6.857700 -6.739601 0.312100
			CHANNELS 3 Zrotation Yrotation Xrotation
			JOINT LeftLeg
			{
				OFFSET -0.367590 -34.731552 -4.572400
				CHANNELS 3 Zrotation Yrotation Xrotation
				End Site #name: LeftFoot
				{
					OFFSET 0.367590 -34.656704 -6.067400
				}
			}
		}
	}
	JOINT Hips_RightUpLeg
	{
		OFFSET 0.000000 0.000000 0.000000
		CHANNELS 3 Zrotation Yrotation Xrotation
		JOINT RightUpLeg
		{
			OFFSET -6.876100 -6.733299 0.301000
			CHANNELS 3 Zrotation Yrotation Xrotation
			JOINT RightLeg
			{
				OFFSET 0.347353 -34.795158 -4.515900
				CHANNELS 3 Zrotation Yrotation Xrotation
				End Site #name: RightFoot
				{
					OFFSET -0.347353 -34.589367 -6.070300
				}
			}
		}
	}
}
MOTION
Frames: 18
Frame Time: 0.041667
2.209219 -1.151517 -2.073603 -10.058886 47.510218 -9.165905 0.000000 -0.000000 0.000000 5.026720 -6.956395 3.160122 3.943200 -1.663072 7.337068 0.000000 0.000000 0.000000 4.283218 -1.922709 6.908031 1.706801 -20.427361 0.119371 2.224207 -1.093346 5.277464 -2.640617 -1.915021 -3.603825 -84.012322 -18.069189 -3.805038 1.125719 -4.213803 4.091060 3.883914 -3.047241 6.879339 16.792375 6.989017 0.383807 60.011009 3.333769 -3.719582 -179.844607 49.955090 -174.882003 0.000000 0.000000 -0.000000 4.038429 21.399091 -10.018828 -2.351060 -23.647728 -2.865328 0.000000 0.000000 0.000000 -1.446969 -15.526821 -5.004197 -6.559726 -8.511635 17.003704 
2.264465 -1.174473 -2.127455 -9.933386 47.372275 -9.061291 0.000000 -0.000000 0.000000 5.000576 -6.971692 3.160225 3.861707 -1.650157 7.254234 0.000000 0.000000 0.000000 4.221560 -1.920744 6.846810 1.550247 -20.211032 0.075951 2.187991 -1.106870 5.214683 -2.630197 -2.024463 -3.572887 -83.963030 -18.200516 -3.629928 1.101208 -4.297010 4.063075 3.809050 -3.039180 6.825322 16.960532 6.948818 0.358181 59.854968 3.584355 -3.584581 -179.812089 50.352246 -174.818987 0.000000 0.000000 -0.000000 4.001743 21.318479 -10.065100 -2.365176 -23.676881 -2.838083 0.000000 0.000000 0.000000 -1.417142 -15.428131 -5.084788 -6.605305 -8.549158 17.063188 
2.320969 -1.196838 -2.180151 -9.834356 47.314747 -8.979436 0.000000 -0.000000 0.000000 4.967743 -6.983585 3.159315 3.774441 -1.635963 7.172433 0.000000 0.000000 0.000000 4.155079 -1.917093 6.783983 1.382541 -19.903958 0.026190 2.149354 -1.120578 5.150678 -2.646311 -2.108247 -3.536055 -83.865772 -18.334751 -3.470499 1.062302 -4.372460 4.038282 3.727533 -3.030224 6.773718 17.142918 6.924384 0.337229 59.669423 3.895442 -3.466191 -179.776048 50.739238 -174.748346 0.000000 0.000000 -0.000000 3.963899 21.251455 -10.120891 -2.380508 -23.690642 -2.793235 0.000000 0.000000 0.000000 -1.393979 -15.334776 -5.158758 -6.650017 -8.599480 17.107667 
2.379051 -1.218816 -2.232137 -9.762089 47.342859 -8.925145 0.000000 -0.000000 0.000000 4.934304 -7.001135 3.168476 3.681957 -1.620591 7.091349 0.000000 0.000000 0.000000 4.085583 -1.913507 6.717420 1.198152 -19.509683 -0.028866 2.107900 -1.131197 5.092533 -2.696050 -2.176357 -3.491965 -83.726326 -18.465489 -3.337834 0.993943 -4.430104 3.994455 3.640294 -3.021587 6.722147 17.352844 6.934173 0.335959 59.465492 4.255402 -3.370006 -179.744441 51.020465 -174.679610 0.000000 0.000000 -0.000000 3.928396 21.193129 -10.173791 -2.395089 -23.669640 -2.737919 0.000000 0.000000 0.000000 -1.381458 -15.272879 -5.220961 -6.686117 -8.646181 17.137374 
2.439240 -1.240329 -2.283510 -9.720638 47.476717 -8.903523 0.000000 -0.000000 0.000000 4.898083 -7.017476 3.188860 3.584079 -1.605109 7.011204 0.000000 0.000000 0.000000 4.011166 -1.909554 6.650132 1.010783 -19.052148 -0.070734 2.061884 -1.142100 5.034964 -2.753311 -2.262215 -3.434758 -83.558427 -18.582225 -3.248279 0.902037 -4.491645 3.933059 3.546652 -3.014257 6.671084 17.570962 6.966042 0.339300 59.227898 4.674414 -3.303457 -179.721893 51.156036 -174.622296 0.000000 0.000000 -0.000000 3.897981 21.157561 -10.221114 -2.406787 -23.626127 -2.682022 0.000000 0.000000 0.000000 -1.383859 -15.258512 -5.272892 -6.710920 -8.673777 17.164119 
2.502153 -1.261626 -2.334465 -9.713521 47.746284 -8.909436 0.000000 -0.000000 0.000000 4.836870 -7.041593 3.218118 3.478755 -1.591063 6.930047 0.000000 0.000000 0.000000 3.934526 -1.903141 6.587226 0.829911 -18.542720 -0.126146 2.010544 -1.150555 4.984129 -2.797941 -2.369642 -3.378869 -83.388876 -18.678741 -3.209285 0.777747 -4.517320 3.839651 3.446071 -3.007734 6.617481 17.805201 7.000781 0.337113 58.989687 5.137318 -3.252126 -179.715467 51.076084 -174.582054 0.000000 0.000000 -0.000000 3.868248 21.139572 -10.266769 -2.415079 -23.564397 -2.634653 0.000000 0.000000 0.000000 -1.397582 -15.281059 -5.317804 -6.736629 -8.690940 17.183938 
2.568615 -1.282670 -2.385026 -9.727130 48.094697 -8.928734 0.000000 -0.000000 0.000000 4.734307 -7.095353 3.281190 3.365462 -1.580767 6.846731 0.000000 0.000000 0.000000 3.851701 -1.896934 6.525975 0.667243 -18.001241 -0.206481 1.936048 -1.152613 4.934617 -2.836979 -2.518737 -3.308436 -83.216396 -18.774680 -3.201646 0.616028 -4.498063 3.705214 3.337490 -3.004885 6.561084 18.045712 7.004520 0.312235 58.753005 5.638674 -3.228165 -179.723326 50.760565 -174.555163 0.000000 0.000000 -0.000000 3.839558 21.133053 -10.307983 -2.421022 -23.465976 -2.587048 0.000000 0.000000 0.000000 -1.420271 -15.333388 -5.353375 -6.762216 -8.704992 17.193022 
2.639287 -1.303516 -2.435038 -9.747856 48.460580 -8.946145 0.000000 -0.000000 0.000000 4.610529 -7.165138 3.359032 3.244417 -1.574573 6.752747 0.000000 0.000000 0.000000 3.762326 -1.888810 6.467099 0.516857 -17.437721 -0.311583 1.857525 -1.161219 4.870296 -2.866719 -2.706126 -3.229864 -83.061116 -18.867691 -3.244761 0.412477 -4.390713 3.518236 3.217793 -3.003953 6.498499 18.288439 6.978750 0.277392 58.530364 6.148958 -3.224659 -179.747445 50.173079 -174.540698 0.000000 0.000000 -0.000000 3.810975 21.132701 -10.353430 -2.429372 -23.351252 -2.535270 0.000000 -0.000000 0.000000 -1.448302 -15.406779 -5.383974 -6.795973 -8.732479 17.193036 
2.714734 -1.324205 -2.484697 -9.772539 48.815005 -8.957633 0.000000 -0.000000 0.000000 4.473305 -7.239560 3.436079 3.115332 -1.571642 6.651249 0.000000 0.000000 0.000000 3.666604 -1.879472 6.415249 0.373314 -16.851539 -0.428329 1.772929 -1.176615 4.800871 -2.904540 -2.903775 -3.152330 -82.919584 -18.951908 -3.326714 0.181761 -4.210502 3.310836 3.089431 -3.009869 6.428548 18.508640 6.895251 0.311480 58.327553 6.640611 -3.286388 -179.794552 49.294701 -174.550508 0.000000 0.000000 -0.000000 3.779466 21.134503 -10.412337 -2.438722 -23.211930 -2.474549 0.000000 -0.000000 0.000000 -1.480256 -15.490487 -5.419980 -6.833626 -8.768157 17.194060 
2.795418 -1.344506 -2.534281 -9.791824 49.124001 -8.955131 0.000000 -0.000000 0.000000 4.329562 -7.316913 3.510950 2.977357 -1.574553 6.550670 0.000000 0.000000 0.000000 3.565349 -1.871638 6.367186 0.240643 -16.272874 -0.544809 1.682653 -1.194180 4.735076 -2.947879 -3.116314 -3.071608 -82.793259 -19.026617 -3.449779 -0.093726 -3.938878 3.049046 2.958283 -3.022823 6.357083 18.738262 6.750832 0.330834 58.181531 7.108426 -3.423460 -179.848070 48.277069 -174.567774 0.000000 0.000000 -0.000000 3.745556 21.136979 -10.482551 -2.451931 -23.058981 -2.408718 0.000000 -0.000000 0.000000 -1.515078 -15.560775 -5.453911 -6.859697 -8.818927 17.178702 
2.881650 -1.364302 -2.583715 -9.808188 49.391879 -8.948188 0.000000 -0.000000 0.000000 4.181128 -7.394620 3.573219 2.840961 -1.588100 6.456098 0.000000 0.000000 0.000000 3.466732 -1.872858 6.327237 0.127235 -15.722377 -0.661466 1.587702 -1.219254 4.682448 -2.976226 -3.346098 -2.991485 -82.694629 -19.077214 -3.603024 -0.339236 -3.647299 2.806660 2.819554 -3.045647 6.289443 18.979745 6.566763 0.338270 58.065038 7.531741 -3.605492 -179.910338 47.051686 -174.592359 0.000000 0.000000 -0.000000 3.707879 21.139514 -10.548954 -2.467835 -22.905484 -2.360748 0.000000 -0.000000 0.000000 -1.557673 -15.613382 -5.491285 -6.869374 -8.882264 17.152885 
2.973865 -1.383663 -2.632902 -9.809548 49.617307 -8.920096 0.000000 -0.000000 0.000000 4.035608 -7.476107 3.639576 2.708886 -1.612538 6.380699 0.000000 0.000000 0.000000 3.371386 -1.881376 6.302179 0.028117 -15.181566 -0.776342 1.492149 -1.253541 4.643930 -2.986176 -3.602056 -2.913068 -82.622226 -19.092662 -3.767722 -0.460605 -3.405868 2.658697 2.674526 -3.079994 6.232839 19.241801 6.330007 0.327990 57.928237 7.889987 -3.928323 -179.981018 45.679622 -174.616401 0.000000 0.000000 -0.000000 3.660326 21.133819 -10.612116 -2.481020 -22.767924 -2.342720 0.000000 -0.000000 0.000000 -1.611011 -15.629333 -5.522574 -6.835407 -8.912400 17.100979 
3.073585 -1.402797 -2.681351 -9.807028 49.808145 -8.892623 0.000000 -0.000000 0.000000 3.884243 -7.565473 3.720074 2.582682 -1.649030 6.334037 0.000000 0.000000 0.000000 3.281763 -1.896775 6.296703 -0.057491 -14.666865 -0.890152 1.397433 -1.295671 4.626903 -2.997114 -3.863524 -2.835144 -82.518222 -19.051768 -3.976527 -0.578342 -3.123447 2.516271 2.535970 -3.126843 6.196097 19.490663 6.071998 0.290745 57.821486 8.205609 -4.305603 179.940628 44.135926 -174.646693 0.000000 0.000000 -0.000000 3.604996 21.114155 -10.661143 -2.491283 -22.672423 -2.374822 0.000000 -0.000000 0.000000 -1.674276 -15.573501 -5.556593 -6.742517 -8.890307 17.025566 
3.182455 -1.421831 -2.728868 -9.792859 50.010467 -8.849868 0.000000 -0.000000 0.000000 3.734166 -7.649340 3.806345 2.462764 -1.693721 6.317093 0.000000 0.000000 0.000000 3.196122 -1.916805 6.305880 -0.120976 -14.183251 -1.003981 1.307626 -1.339001 4.638042 -2.992892 -4.134656 -2.760567 -82.370003 -18.927894 -4.273853 -0.690205 -2.836537 2.371936 2.404743 -3.182793 6.174095 19.710781 5.765585 0.228307 57.750388 8.478418 -4.733428 179.856709 42.431627 -174.682368 0.000000 0.000000 -0.000000 3.534245 21.072777 -10.700908 -2.496733 -22.635054 -2.460405 0.000000 -0.000000 0.000000 -1.751024 -15.462863 -5.595652 -6.613131 -8.883195 16.939323 
3.300491 -1.441219 -2.776342 -9.783260 50.278599 -8.814876 0.000000 -0.000000 0.000000 3.580835 -7.747996 3.912143 2.345201 -1.743921 6.322230 0.000000 0.000000 0.000000 3.088447 -1.934660 6.326895 -0.167952 -13.728757 -1.115112 1.232684 -1.380657 4.647832 -2.980107 -4.386658 -2.700726 -82.269908 -18.792871 -4.530933 -0.755221 -2.472524 2.290933 2.281694 -3.244363 6.167945 19.898072 5.418833 0.142843 57.737593 8.670443 -5.130676 179.771635 40.624029 -174.720643 0.000000 0.000000 -0.000000 3.451240 21.016193 -10.734873 -2.503456 -22.664303 -2.588816 0.000000 -0.000000 -0.000000 -1.840294 -15.285904 -5.646502 -6.430064 -8.882265 16.847620 
3.428032 -1.461028 -2.824245 -9.779029 50.625869 -8.789947 0.000000 -0.000000 0.000000 3.427503 -7.855008 4.042979 2.229480 -1.799011 6.345854 0.000000 0.000000 0.000000 2.980030 -1.953494 6.354278 -0.204308 -13.314244 -1.233988 1.156630 -1.421722 4.674742 -2.972564 -4.569084 -2.651294 -82.210497 -18.685176 -4.735682 -0.791646 -2.065606 2.246763 2.158134 -3.307701 6.180921 20.011393 5.182047 0.073845 57.779079 8.821135 -5.586587 179.693832 38.908232 -174.756633 0.000000 0.000000 -0.000000 3.362598 20.963883 -10.752171 -2.506397 -22.755349 -2.755816 0.000000 -0.000000 -0.000000 -1.944564 -15.057399 -5.717953 -6.231147 -8.898026 16.784780 
3.565210 -1.481701 -2.872912 -9.777164 51.020675 -8.773938 0.000000 -0.000000 0.000000 3.279293 -7.975489 4.203297 2.107558 -1.855470 6.381949 0.000000 0.000000 0.000000 2.862558 -1.969929 6.383560 -0.224818 -12.952113 -1.356270 1.078859 -1.464593 4.704699 -2.972830 -4.695614 -2.616980 -82.202374 -18.581443 -4.902668 -0.822232 -1.667049 2.181694 2.031450 -3.368411 6.209200 20.107333 5.149255 0.014815 57.873648 8.925426 -6.201999 179.636068 37.523587 -174.775821 0.000000 0.000000 -0.000000 3.271859 20.920818 -10.761154 -2.508100 -22.894011 -2.942393 0.000000 -0.000000 -0.000000 -2.056983 -14.708224 -5.811216 -5.993658 -8.940409 16.728453 
3.712079 -1.503624 -2.921049 -9.775400 51.469696 -8.773178 0.000000 -0.000000 0.000000 3.144031 -8.096044 4.389229 1.973612 -1.911991 6.419046 0.000000 0.000000 0.000000 2.733907 -1.979608 6.406707 -0.227713 -12.648828 -1.482887 0.997431 -1.501754 4.726605 -2.959273 -4.792980 -2.585512 -82.205316 -18.503629 -5.062433 -0.843669 -1.289745 2.098151 1.888194 -3.426629 6.225723 20.149697 5.428982 0.037392 57.921499 8.982959 -6.896056 179.595143 36.342766 -174.794028 0.000000 0.000000 -0.000000 3.183827 20.890122 -10.748230 -2.503345 -23.061917 -3.144768 0.000000 -0.000000 -0.000000 -2.175144 -14.249362 -5.903247 -5.714763 -9.017962 16.645463 
